<svg xmlns="http://www.w3.org/2000/svg" width="1185" height="812" viewBox="0 0 1185 812">
  <defs>
    <style>text { font-family: 'Noto Sans KR', -apple-system, sans-serif; }</style>
  </defs>

  <!-- ===== 화면 1: 카메라 ===== -->
  <rect width="375" height="812" rx="40" fill="#111827"/>
  <text x="187" y="30" font-size="14" font-weight="600" text-anchor="middle" fill="#FFF">9:41</text>

  <text x="187" y="76" font-size="18" font-weight="700" text-anchor="middle" fill="#FFF">컨디션 체크</text>
  <text x="187" y="100" font-size="13" text-anchor="middle" fill="#94A3B8">얼굴이 가이드 안에 오도록 해주세요</text>

  <!-- Camera Preview Area -->
  <rect x="24" y="120" width="327" height="420" rx="20" fill="#1F2937"/>
  <!-- Face Guide -->
  <ellipse cx="187" cy="300" rx="90" ry="120" fill="none" stroke="#6366F1" stroke-width="2" stroke-dasharray="8,4" opacity="0.7"/>
  <text x="187" y="460" font-size="12" text-anchor="middle" fill="#6366F1">얼굴 가이드</text>

  <!-- Capture Button -->
  <circle cx="187" cy="600" r="36" fill="none" stroke="#FFF" stroke-width="3"/>
  <circle cx="187" cy="600" r="28" fill="#FFF"/>

  <text x="187" y="680" font-size="13" text-anchor="middle" fill="#94A3B8">촬영 버튼을 눌러주세요</text>

  <!-- Tab Bar -->
  <rect y="740" width="375" height="72" fill="#111827"/>
  <text x="51" y="780" font-size="11" text-anchor="middle" fill="#64748B">오늘</text>
  <text x="145" y="780" font-size="11" font-weight="700" text-anchor="middle" fill="#6366F1">컨디션</text>
  <text x="234" y="780" font-size="11" text-anchor="middle" fill="#64748B">기록</text>
  <text x="323" y="780" font-size="11" text-anchor="middle" fill="#64748B">프로필</text>

  <rect width="375" height="812" rx="40" fill="none" stroke="#374151" stroke-width="2"/>

  <!-- ===== 화면 2: 분석 결과 + 수정 ===== -->
  <g transform="translate(405, 0)">
    <rect width="375" height="812" rx="40" fill="#F8FAFC"/>
    <text x="187" y="30" font-size="14" font-weight="600" text-anchor="middle" fill="#1E293B">9:41</text>

    <text x="24" y="76" font-size="20" font-weight="800" fill="#1E293B">컨디션 분석 결과</text>
    <text x="24" y="96" font-size="13" fill="#94A3B8">AI 분석 결과를 확인하고 수정할 수 있습니다</text>

    <!-- Energy Slider -->
    <text x="24" y="136" font-size="13" font-weight="600" fill="#475569">에너지</text>
    <text x="351" y="136" font-size="15" font-weight="700" text-anchor="end" fill="#F59E0B">6/10</text>
    <rect x="24" y="146" width="327" height="6" rx="3" fill="#E2E8F0"/>
    <rect x="24" y="146" width="196" height="6" rx="3" fill="#F59E0B"/>
    <circle cx="220" cy="149" r="10" fill="#FFF" stroke="#F59E0B" stroke-width="2"/>

    <!-- Mood Selector -->
    <text x="24" y="196" font-size="13" font-weight="600" fill="#475569">무드</text>
    <rect x="24" y="206" width="60" height="32" rx="8" fill="#FFF" stroke="#E2E8F0" stroke-width="1"/>
    <text x="54" y="227" font-size="12" text-anchor="middle" fill="#64748B">😊</text>
    <rect x="92" y="206" width="60" height="32" rx="8" fill="#EEF2FF" stroke="#6366F1" stroke-width="1.5"/>
    <text x="122" y="227" font-size="12" text-anchor="middle" fill="#6366F1">😌 차분</text>
    <rect x="160" y="206" width="56" height="32" rx="8" fill="#FFF" stroke="#E2E8F0" stroke-width="1"/>
    <text x="188" y="227" font-size="12" text-anchor="middle" fill="#64748B">😢</text>
    <rect x="224" y="206" width="56" height="32" rx="8" fill="#FFF" stroke="#E2E8F0" stroke-width="1"/>
    <text x="252" y="227" font-size="12" text-anchor="middle" fill="#64748B">😰</text>
    <rect x="288" y="206" width="56" height="32" rx="8" fill="#FFF" stroke="#E2E8F0" stroke-width="1"/>
    <text x="316" y="227" font-size="12" text-anchor="middle" fill="#64748B">😫</text>

    <!-- Stress Slider -->
    <text x="24" y="272" font-size="13" font-weight="600" fill="#475569">스트레스</text>
    <text x="351" y="272" font-size="15" font-weight="700" text-anchor="end" fill="#10B981">3/10</text>
    <rect x="24" y="282" width="327" height="6" rx="3" fill="#E2E8F0"/>
    <rect x="24" y="282" width="98" height="6" rx="3" fill="#10B981"/>
    <circle cx="122" cy="285" r="10" fill="#FFF" stroke="#10B981" stroke-width="2"/>

    <!-- Sleep -->
    <text x="24" y="326" font-size="13" font-weight="600" fill="#475569">수면 상태</text>
    <rect x="24" y="336" width="100" height="32" rx="8" fill="#FFF" stroke="#E2E8F0" stroke-width="1"/>
    <text x="74" y="357" font-size="12" text-anchor="middle" fill="#64748B">😊 좋음</text>
    <rect x="132" y="336" width="100" height="32" rx="8" fill="#FEF3C7" stroke="#F59E0B" stroke-width="1.5"/>
    <text x="182" y="357" font-size="12" text-anchor="middle" fill="#92400E">😐 보통</text>
    <rect x="240" y="336" width="100" height="32" rx="8" fill="#FFF" stroke="#E2E8F0" stroke-width="1"/>
    <text x="290" y="357" font-size="12" text-anchor="middle" fill="#64748B">😴 부족</text>

    <!-- AI Detection -->
    <rect x="24" y="390" width="327" height="60" rx="12" fill="#F0FDF4" stroke="#BBF7D0" stroke-width="1"/>
    <text x="40" y="413" font-size="12" font-weight="600" fill="#166534">🔍 AI 추가 감지</text>
    <text x="40" y="433" font-size="12" fill="#15803D">턱 긴장: 3/5 → 목·어깨 이완 운동 추가 반영</text>

    <!-- Summary -->
    <text x="24" y="480" font-size="13" font-weight="600" fill="#475569">AI 요약</text>
    <rect x="24" y="490" width="327" height="40" rx="10" fill="#F1F5F9"/>
    <text x="36" y="515" font-size="12" fill="#475569">"차분하고 안정적이나 수면이 다소 부족해 보임"</text>

    <!-- Member Note -->
    <text x="24" y="558" font-size="13" font-weight="600" fill="#475569">추가 메모 (선택)</text>
    <rect x="24" y="568" width="327" height="56" rx="12" fill="#FFF" stroke="#E2E8F0" stroke-width="1.5"/>
    <text x="40" y="592" font-size="14" fill="#1E293B">오른쪽 어깨가 좀 뻐근해요</text>

    <!-- Buttons -->
    <rect x="24" y="646" width="327" height="48" rx="12" fill="#6366F1"/>
    <text x="187" y="676" font-size="15" font-weight="700" text-anchor="middle" fill="#FFF">등록하기 →</text>

    <rect x="24" y="706" width="327" height="40" rx="10" fill="none" stroke="#E2E8F0" stroke-width="1.5"/>
    <text x="187" y="731" font-size="13" font-weight="500" text-anchor="middle" fill="#94A3B8">다시 촬영하기</text>

    <rect width="375" height="812" rx="40" fill="none" stroke="#1E293B" stroke-width="2"/>
  </g>

  <!-- ===== 화면 3: 카테고리 선택 ===== -->
  <g transform="translate(810, 0)">
    <rect width="375" height="812" rx="40" fill="#F8FAFC"/>
    <text x="187" y="30" font-size="14" font-weight="600" text-anchor="middle" fill="#1E293B">9:41</text>

    <text x="24" y="76" font-size="20" font-weight="800" fill="#1E293B">추가 운동 선택</text>
    <text x="24" y="96" font-size="13" fill="#94A3B8">오늘 특별히 원하는 운동이 있나요? (최대 2개)</text>

    <!-- Category Grid -->
    <!-- Row 1 -->
    <rect x="24" y="120" width="156" height="64" rx="14" fill="#EEF2FF" stroke="#6366F1" stroke-width="1.5"/>
    <text x="102" y="150" font-size="20" text-anchor="middle">💪</text>
    <text x="102" y="172" font-size="13" font-weight="600" text-anchor="middle" fill="#4338CA">코어 집중</text>

    <rect x="195" y="120" width="156" height="64" rx="14" fill="#EEF2FF" stroke="#6366F1" stroke-width="1.5"/>
    <text x="273" y="150" font-size="20" text-anchor="middle">🤸</text>
    <text x="273" y="172" font-size="13" font-weight="600" text-anchor="middle" fill="#4338CA">유연성</text>

    <!-- Row 2 -->
    <rect x="24" y="196" width="156" height="64" rx="14" fill="#FFF" stroke="#E2E8F0" stroke-width="1"/>
    <text x="102" y="226" font-size="20" text-anchor="middle">🏋️</text>
    <text x="102" y="248" font-size="13" font-weight="500" text-anchor="middle" fill="#64748B">상체 강화</text>

    <rect x="195" y="196" width="156" height="64" rx="14" fill="#FFF" stroke="#E2E8F0" stroke-width="1"/>
    <text x="273" y="226" font-size="20" text-anchor="middle">🦵</text>
    <text x="273" y="248" font-size="13" font-weight="500" text-anchor="middle" fill="#64748B">하체 강화</text>

    <!-- Row 3 -->
    <rect x="24" y="272" width="156" height="64" rx="14" fill="#FFF" stroke="#E2E8F0" stroke-width="1"/>
    <text x="102" y="302" font-size="20" text-anchor="middle">⚖️</text>
    <text x="102" y="324" font-size="13" font-weight="500" text-anchor="middle" fill="#64748B">밸런스</text>

    <rect x="195" y="272" width="156" height="64" rx="14" fill="#FFF" stroke="#E2E8F0" stroke-width="1"/>
    <text x="273" y="302" font-size="20" text-anchor="middle">🧘</text>
    <text x="273" y="324" font-size="13" font-weight="500" text-anchor="middle" fill="#64748B">스트레칭</text>

    <!-- Row 4 -->
    <rect x="24" y="348" width="156" height="64" rx="14" fill="#FFF" stroke="#E2E8F0" stroke-width="1"/>
    <text x="102" y="378" font-size="20" text-anchor="middle">🌬️</text>
    <text x="102" y="400" font-size="13" font-weight="500" text-anchor="middle" fill="#64748B">호흡/릴랙스</text>

    <rect x="195" y="348" width="156" height="64" rx="14" fill="#FFF" stroke="#E2E8F0" stroke-width="1"/>
    <text x="273" y="378" font-size="20" text-anchor="middle">🧍</text>
    <text x="273" y="400" font-size="13" font-weight="500" text-anchor="middle" fill="#64748B">자세 교정</text>

    <!-- Row 5 -->
    <rect x="24" y="424" width="156" height="64" rx="14" fill="#FFF" stroke="#E2E8F0" stroke-width="1"/>
    <text x="102" y="454" font-size="20" text-anchor="middle">🔥</text>
    <text x="102" y="476" font-size="13" font-weight="500" text-anchor="middle" fill="#64748B">근력 강화</text>

    <!-- Selected summary -->
    <rect x="24" y="510" width="327" height="44" rx="12" fill="#EEF2FF"/>
    <text x="40" y="537" font-size="13" fill="#4338CA">선택: 💪 코어 집중, 🤸 유연성 (2/2)</text>

    <!-- Loading Preview -->
    <rect x="24" y="580" width="327" height="100" rx="14" fill="#FFF" stroke="#E2E8F0" stroke-width="1"/>
    <text x="187" y="620" font-size="13" font-weight="600" text-anchor="middle" fill="#1E293B">시퀀스 생성 미리보기</text>
    <text x="187" y="644" font-size="12" text-anchor="middle" fill="#94A3B8">컨디션 + 프로필 + 코어/유연성 조합으로</text>
    <text x="187" y="664" font-size="12" text-anchor="middle" fill="#94A3B8">최적의 50분 시퀀스를 만들어 드립니다</text>

    <!-- Generate Button -->
    <rect x="24" y="700" width="327" height="52" rx="14" fill="#6366F1"/>
    <text x="187" y="732" font-size="16" font-weight="700" text-anchor="middle" fill="#FFF">시퀀스 생성하기 →</text>

    <rect width="375" height="812" rx="40" fill="none" stroke="#1E293B" stroke-width="2"/>
  </g>
</svg>
