<svg xmlns="http://www.w3.org/2000/svg" width="780" height="812" viewBox="0 0 780 812">
  <defs><style>text { font-family: 'Noto Sans KR', -apple-system, sans-serif; }</style></defs>

  <!-- ===== 기록 화면 ===== -->
  <rect width="375" height="812" rx="40" fill="#F8FAFC"/>
  <text x="187" y="30" font-size="14" font-weight="600" text-anchor="middle" fill="#1E293B">9:41</text>
  <text x="24" y="80" font-size="22" font-weight="800" fill="#1E293B">운동 기록</text>
  <text x="24" y="100" font-size="13" fill="#94A3B8">이번 달: 12회 수업</text>

  <!-- Session 1 -->
  <rect x="24" y="120" width="327" height="80" rx="14" fill="#FFF" stroke="#E2E8F0" stroke-width="1"/>
  <text x="40" y="146" font-size="15" font-weight="700" fill="#1E293B">3/18 (월)</text>
  <text x="40" y="166" font-size="13" fill="#94A3B8">코어 중심 · 50분 · 리포머</text>
  <text x="40" y="188" font-size="12" fill="#10B981">😊 에너지↑ · ⚡ 8/10</text>
  <rect x="300" y="136" width="40" height="24" rx="6" fill="#DCFCE7"/>
  <text x="320" y="153" font-size="11" font-weight="600" text-anchor="middle" fill="#166534">완료</text>

  <!-- Session 2 -->
  <rect x="24" y="212" width="327" height="80" rx="14" fill="#FFF" stroke="#E2E8F0" stroke-width="1"/>
  <text x="40" y="238" font-size="15" font-weight="700" fill="#1E293B">3/15 (금)</text>
  <text x="40" y="258" font-size="13" fill="#94A3B8">전신 밸런스 · 50분 · 매트</text>
  <text x="40" y="280" font-size="12" fill="#6366F1">😌 차분 · ⚡ 6/10</text>
  <rect x="300" y="228" width="40" height="24" rx="6" fill="#DCFCE7"/>
  <text x="320" y="245" font-size="11" font-weight="600" text-anchor="middle" fill="#166534">완료</text>

  <!-- Session 3 -->
  <rect x="24" y="304" width="327" height="80" rx="14" fill="#FFF" stroke="#E2E8F0" stroke-width="1"/>
  <text x="40" y="330" font-size="15" font-weight="700" fill="#1E293B">3/12 (화)</text>
  <text x="40" y="350" font-size="13" fill="#94A3B8">유연성 강화 · 50분 · 매트</text>
  <text x="40" y="372" font-size="12" fill="#F59E0B">😫 피로 · ⚡ 3/10</text>
  <rect x="300" y="320" width="40" height="24" rx="6" fill="#DCFCE7"/>
  <text x="320" y="337" font-size="11" font-weight="600" text-anchor="middle" fill="#166534">완료</text>

  <!-- Session 4 -->
  <rect x="24" y="396" width="327" height="80" rx="14" fill="#FFF" stroke="#E2E8F0" stroke-width="1"/>
  <text x="40" y="422" font-size="15" font-weight="700" fill="#1E293B">3/10 (일)</text>
  <text x="40" y="442" font-size="13" fill="#94A3B8">하체 강화 · 50분 · 리포머</text>
  <text x="40" y="464" font-size="12" fill="#10B981">😊 활기 · ⚡ 9/10</text>
  <rect x="300" y="412" width="40" height="24" rx="6" fill="#DCFCE7"/>
  <text x="320" y="429" font-size="11" font-weight="600" text-anchor="middle" fill="#166534">완료</text>

  <!-- Tab Bar -->
  <rect y="740" width="375" height="72" fill="#FFF"/>
  <line x1="0" y1="740" x2="375" y2="740" stroke="#E2E8F0"/>
  <text x="51" y="780" font-size="11" text-anchor="middle" fill="#94A3B8">오늘</text>
  <text x="145" y="780" font-size="11" text-anchor="middle" fill="#94A3B8">컨디션</text>
  <rect x="197" y="755" width="75" height="3" rx="2" fill="#6366F1"/>
  <text x="234" y="780" font-size="11" font-weight="700" text-anchor="middle" fill="#6366F1">기록</text>
  <text x="323" y="780" font-size="11" text-anchor="middle" fill="#94A3B8">프로필</text>
  <rect width="375" height="812" rx="40" fill="none" stroke="#1E293B" stroke-width="2"/>

  <!-- ===== 프로필 화면 ===== -->
  <g transform="translate(405, 0)">
    <rect width="375" height="812" rx="40" fill="#F8FAFC"/>
    <text x="187" y="30" font-size="14" font-weight="600" text-anchor="middle" fill="#1E293B">9:41</text>
    <text x="24" y="80" font-size="22" font-weight="800" fill="#1E293B">내 프로필</text>
    <text x="327" y="80" font-size="14" font-weight="600" text-anchor="end" fill="#6366F1">편집</text>

    <!-- Avatar -->
    <circle cx="187" cy="140" r="36" fill="#EEF2FF"/>
    <text x="187" y="150" font-size="32" text-anchor="middle">👤</text>
    <text x="187" y="196" font-size="18" font-weight="700" text-anchor="middle" fill="#1E293B">이회원</text>
    <text x="187" y="216" font-size="13" text-anchor="middle" fill="#94A3B8">member@email.com</text>

    <!-- Fitness Level -->
    <text x="24" y="256" font-size="13" font-weight="600" fill="#475569">피트니스 레벨</text>
    <rect x="24" y="266" width="100" height="34" rx="8" fill="#FFF" stroke="#E2E8F0" stroke-width="1"/>
    <text x="74" y="288" font-size="13" text-anchor="middle" fill="#64748B">초급</text>
    <rect x="132" y="266" width="100" height="34" rx="8" fill="#EEF2FF" stroke="#6366F1" stroke-width="1.5"/>
    <text x="182" y="288" font-size="13" font-weight="600" text-anchor="middle" fill="#4338CA">중급</text>
    <rect x="240" y="266" width="100" height="34" rx="8" fill="#FFF" stroke="#E2E8F0" stroke-width="1"/>
    <text x="290" y="288" font-size="13" text-anchor="middle" fill="#64748B">고급</text>

    <!-- Body Conditions -->
    <text x="24" y="332" font-size="13" font-weight="600" fill="#475569">신체 상태</text>
    <rect x="24" y="342" width="110" height="30" rx="8" fill="#FEF2F2" stroke="#FECACA" stroke-width="1"/>
    <text x="79" y="362" font-size="12" font-weight="500" text-anchor="middle" fill="#991B1B">측만증 : 경미</text>
    <rect x="142" y="342" width="120" height="30" rx="8" fill="#FEF2F2" stroke="#FECACA" stroke-width="1"/>
    <text x="202" y="362" font-size="12" font-weight="500" text-anchor="middle" fill="#991B1B">디스크 : 중간</text>
    <rect x="270" y="342" width="60" height="30" rx="8" fill="#F1F5F9" stroke="#E2E8F0" stroke-width="1"/>
    <text x="300" y="362" font-size="12" text-anchor="middle" fill="#94A3B8">+ 추가</text>

    <!-- Preferences -->
    <text x="24" y="406" font-size="13" font-weight="600" fill="#475569">운동 선호</text>
    <rect x="24" y="416" width="327" height="72" rx="12" fill="#FFF" stroke="#E2E8F0" stroke-width="1"/>
    <text x="40" y="440" font-size="13" fill="#64748B">기구: <tspan fill="#1E293B" font-weight="500">리포머, 매트</tspan></text>
    <text x="40" y="460" font-size="13" fill="#64748B">목표: <tspan fill="#1E293B" font-weight="500">코어 강화, 자세 교정</tspan></text>
    <text x="40" y="480" font-size="13" fill="#64748B">선호 시간: <tspan fill="#1E293B" font-weight="500">50분</tspan></text>

    <!-- Schedule Info -->
    <text x="24" y="522" font-size="13" font-weight="600" fill="#475569">수업 스케줄</text>
    <rect x="24" y="532" width="327" height="44" rx="12" fill="#FFF" stroke="#E2E8F0" stroke-width="1"/>
    <text x="40" y="558" font-size="13" fill="#1E293B">📅 월/수/금 10:00 · 김강사</text>

    <!-- Logout -->
    <rect x="24" y="610" width="327" height="48" rx="12" fill="#FFF" stroke="#E2E8F0" stroke-width="1.5"/>
    <text x="187" y="640" font-size="15" font-weight="600" text-anchor="middle" fill="#EF4444">로그아웃</text>

    <!-- Tab Bar -->
    <rect y="740" width="375" height="72" fill="#FFF"/>
    <line x1="0" y1="740" x2="375" y2="740" stroke="#E2E8F0"/>
    <text x="51" y="780" font-size="11" text-anchor="middle" fill="#94A3B8">오늘</text>
    <text x="145" y="780" font-size="11" text-anchor="middle" fill="#94A3B8">컨디션</text>
    <text x="234" y="780" font-size="11" text-anchor="middle" fill="#94A3B8">기록</text>
    <rect x="286" y="755" width="75" height="3" rx="2" fill="#6366F1"/>
    <text x="323" y="780" font-size="11" font-weight="700" text-anchor="middle" fill="#6366F1">프로필</text>
    <rect width="375" height="812" rx="40" fill="none" stroke="#1E293B" stroke-width="2"/>
  </g>
</svg>
