<svg xmlns="http://www.w3.org/2000/svg" width="375" height="812" viewBox="0 0 375 812">
  <defs><style>text { font-family: 'Noto Sans KR', -apple-system, sans-serif; }</style></defs>

  <rect width="375" height="812" rx="40" fill="#F8FAFC"/>
  <text x="187" y="30" font-size="14" font-weight="600" text-anchor="middle" fill="#1E293B">9:41</text>

  <!-- Header -->
  <text x="24" y="76" font-size="22" font-weight="800" fill="#1E293B">대시보드</text>
  <text x="351" y="76" font-size="13" font-weight="500" text-anchor="end" fill="#94A3B8">2026.03.20</text>

  <!-- Summary Card -->
  <rect x="24" y="96" width="327" height="80" rx="14" fill="#6366F1"/>
  <text x="40" y="122" font-size="14" font-weight="600" fill="rgba(255,255,255,0.8)">오늘 현황</text>
  <text x="40" y="148" font-size="24" font-weight="800" fill="#FFF">12명</text>
  <text x="105" y="148" font-size="13" fill="rgba(255,255,255,0.7)">전체 수업</text>
  <text x="195" y="130" font-size="13" fill="rgba(255,255,255,0.7)">컨디션 체크</text>
  <text x="195" y="152" font-size="18" font-weight="700" fill="#FFF">8명 ✓</text>
  <text x="290" y="130" font-size="13" fill="rgba(255,255,255,0.7)">미체크</text>
  <text x="290" y="152" font-size="18" font-weight="700" fill="#FDE68A">4명</text>

  <!-- Deadline Notice -->
  <rect x="24" y="188" width="327" height="32" rx="8" fill="#FEF3C7"/>
  <text x="187" y="209" font-size="12" font-weight="500" text-anchor="middle" fill="#92400E">⏰ 12시 알림 발송 → 1시 자동 시퀀스 생성</text>

  <!-- Section Title -->
  <text x="24" y="252" font-size="15" font-weight="700" fill="#1E293B">시퀀스 현황</text>

  <!-- Member 1: Completed -->
  <rect x="24" y="266" width="327" height="96" rx="14" fill="#FFF" stroke="#E2E8F0" stroke-width="1"/>
  <text x="40" y="290" font-size="15" font-weight="700" fill="#1E293B">이회원</text>
  <text x="40" y="310" font-size="12" fill="#94A3B8">10:00 · 코어+유연성 · 50분</text>
  <text x="40" y="330" font-size="12" fill="#6366F1">😌 차분 · ⚡6 · 수면 보통</text>
  <text x="40" y="350" font-size="11" fill="#F59E0B">📝 "오른쪽 어깨가 뻐근해요"</text>
  <rect x="280" y="278" width="56" height="26" rx="6" fill="#DCFCE7"/>
  <text x="308" y="296" font-size="11" font-weight="600" text-anchor="middle" fill="#166534">생성 ✓</text>
  <text x="308" y="346" font-size="12" font-weight="600" text-anchor="middle" fill="#6366F1">리뷰 →</text>

  <!-- Member 2: Completed -->
  <rect x="24" y="374" width="327" height="80" rx="14" fill="#FFF" stroke="#E2E8F0" stroke-width="1"/>
  <text x="40" y="398" font-size="15" font-weight="700" fill="#1E293B">박회원</text>
  <text x="40" y="418" font-size="12" fill="#94A3B8">11:00 · 상체+밸런스 · 50분</text>
  <text x="40" y="438" font-size="12" fill="#10B981">😊 활기 · ⚡8 · 수면 좋음</text>
  <rect x="280" y="386" width="56" height="26" rx="6" fill="#DCFCE7"/>
  <text x="308" y="404" font-size="11" font-weight="600" text-anchor="middle" fill="#166534">생성 ✓</text>
  <text x="308" y="440" font-size="12" font-weight="600" text-anchor="middle" fill="#6366F1">리뷰 →</text>

  <!-- Member 3: Not checked -->
  <rect x="24" y="466" width="327" height="64" rx="14" fill="#FFF" stroke="#FDE68A" stroke-width="1.5"/>
  <text x="40" y="492" font-size="15" font-weight="700" fill="#1E293B">최회원</text>
  <text x="40" y="514" font-size="12" fill="#94A3B8">14:00 · 컨디션 미체크</text>
  <rect x="262" y="484" width="76" height="26" rx="6" fill="#FEF3C7"/>
  <text x="300" y="502" font-size="11" font-weight="600" text-anchor="middle" fill="#92400E">1시 자동</text>

  <!-- Member 4: Not checked -->
  <rect x="24" y="542" width="327" height="64" rx="14" fill="#FFF" stroke="#FDE68A" stroke-width="1.5"/>
  <text x="40" y="568" font-size="15" font-weight="700" fill="#1E293B">김회원</text>
  <text x="40" y="590" font-size="12" fill="#94A3B8">15:00 · 컨디션 미체크</text>
  <rect x="262" y="560" width="76" height="26" rx="6" fill="#FEF3C7"/>
  <text x="300" y="578" font-size="11" font-weight="600" text-anchor="middle" fill="#92400E">1시 자동</text>

  <!-- Member 5: Auto Generated -->
  <rect x="24" y="618" width="327" height="72" rx="14" fill="#FFF" stroke="#E2E8F0" stroke-width="1"/>
  <text x="40" y="644" font-size="15" font-weight="700" fill="#1E293B">정회원</text>
  <text x="40" y="664" font-size="12" fill="#94A3B8">16:00 · 프로필 기반 · 50분</text>
  <text x="40" y="680" font-size="11" fill="#64748B">컨디션 없이 자동 생성</text>
  <rect x="262" y="636" width="76" height="26" rx="6" fill="#F1F5F9"/>
  <text x="300" y="654" font-size="11" font-weight="600" text-anchor="middle" fill="#64748B">🤖 자동</text>

  <!-- Tab Bar -->
  <rect y="740" width="375" height="72" fill="#FFF"/>
  <line x1="0" y1="740" x2="375" y2="740" stroke="#E2E8F0"/>
  <rect x="2" y="755" width="68" height="3" rx="2" fill="#6366F1"/>
  <text x="36" y="780" font-size="10" font-weight="700" text-anchor="middle" fill="#6366F1">홈</text>
  <text x="112" y="780" font-size="10" text-anchor="middle" fill="#94A3B8">회원</text>
  <text x="187" y="780" font-size="10" text-anchor="middle" fill="#94A3B8">스케줄</text>
  <text x="262" y="780" font-size="10" text-anchor="middle" fill="#94A3B8">세션</text>
  <text x="338" y="780" font-size="10" text-anchor="middle" fill="#94A3B8">설정</text>
  <text x="36" y="800" font-size="16" text-anchor="middle">🏠</text>
  <text x="112" y="800" font-size="16" text-anchor="middle">👥</text>
  <text x="187" y="800" font-size="16" text-anchor="middle">📅</text>
  <text x="262" y="800" font-size="16" text-anchor="middle">📋</text>
  <text x="338" y="800" font-size="16" text-anchor="middle">⚙️</text>

  <rect width="375" height="812" rx="40" fill="none" stroke="#1E293B" stroke-width="2"/>
</svg>
