<svg xmlns="http://www.w3.org/2000/svg" width="780" height="812" viewBox="0 0 780 812">
  <defs><style>text { font-family: 'Noto Sans KR', -apple-system, sans-serif; }</style></defs>

  <!-- ===== 주간 스케줄 ===== -->
  <rect width="375" height="812" rx="40" fill="#F8FAFC"/>
  <text x="187" y="30" font-size="14" font-weight="600" text-anchor="middle" fill="#1E293B">9:41</text>

  <text x="24" y="76" font-size="22" font-weight="800" fill="#1E293B">주간 스케줄</text>
  <text x="327" y="76" font-size="14" font-weight="600" text-anchor="end" fill="#6366F1">+ 등록</text>

  <!-- Day Tabs -->
  <rect x="24" y="96" width="56" height="36" rx="10" fill="#FFF" stroke="#E2E8F0" stroke-width="1"/>
  <text x="52" y="119" font-size="13" font-weight="500" text-anchor="middle" fill="#64748B">월</text>
  <rect x="86" y="96" width="56" height="36" rx="10" fill="#6366F1"/>
  <text x="114" y="119" font-size="13" font-weight="700" text-anchor="middle" fill="#FFF">화</text>
  <rect x="148" y="96" width="56" height="36" rx="10" fill="#FFF" stroke="#E2E8F0" stroke-width="1"/>
  <text x="176" y="119" font-size="13" font-weight="500" text-anchor="middle" fill="#64748B">수</text>
  <rect x="210" y="96" width="56" height="36" rx="10" fill="#FFF" stroke="#E2E8F0" stroke-width="1"/>
  <text x="238" y="119" font-size="13" font-weight="500" text-anchor="middle" fill="#64748B">목</text>
  <rect x="272" y="96" width="56" height="36" rx="10" fill="#FFF" stroke="#E2E8F0" stroke-width="1"/>
  <text x="300" y="119" font-size="13" font-weight="500" text-anchor="middle" fill="#64748B">금</text>

  <text x="24" y="164" font-size="14" font-weight="600" fill="#475569">화요일 스케줄</text>

  <!-- Schedule 1 -->
  <rect x="24" y="180" width="327" height="72" rx="14" fill="#FFF" stroke="#E2E8F0" stroke-width="1"/>
  <rect x="24" y="180" width="4" height="72" rx="2" fill="#6366F1"/>
  <text x="44" y="206" font-size="18" font-weight="800" fill="#6366F1">10:00</text>
  <text x="110" y="204" font-size="15" font-weight="700" fill="#1E293B">이회원</text>
  <text x="110" y="224" font-size="12" fill="#94A3B8">중급 · 리포머, 매트</text>
  <text x="110" y="242" font-size="11" fill="#EF4444">측만증(경미), 디스크(중간)</text>

  <!-- Schedule 2 -->
  <rect x="24" y="264" width="327" height="72" rx="14" fill="#FFF" stroke="#E2E8F0" stroke-width="1"/>
  <rect x="24" y="264" width="4" height="72" rx="2" fill="#10B981"/>
  <text x="44" y="290" font-size="18" font-weight="800" fill="#10B981">11:00</text>
  <text x="110" y="288" font-size="15" font-weight="700" fill="#1E293B">박회원</text>
  <text x="110" y="308" font-size="12" fill="#94A3B8">초급 · 매트</text>
  <text x="110" y="326" font-size="11" fill="#64748B">신체 이슈 없음</text>

  <!-- Schedule 3 -->
  <rect x="24" y="348" width="327" height="72" rx="14" fill="#FFF" stroke="#E2E8F0" stroke-width="1"/>
  <rect x="24" y="348" width="4" height="72" rx="2" fill="#F59E0B"/>
  <text x="44" y="374" font-size="18" font-weight="800" fill="#F59E0B">14:00</text>
  <text x="110" y="372" font-size="15" font-weight="700" fill="#1E293B">최회원</text>
  <text x="110" y="392" font-size="12" fill="#94A3B8">고급 · 리포머</text>
  <text x="110" y="410" font-size="11" fill="#EF4444">무릎 부상(중간)</text>

  <!-- Schedule 4 -->
  <rect x="24" y="432" width="327" height="72" rx="14" fill="#FFF" stroke="#E2E8F0" stroke-width="1"/>
  <rect x="24" y="432" width="4" height="72" rx="2" fill="#EC4899"/>
  <text x="44" y="458" font-size="18" font-weight="800" fill="#EC4899">15:00</text>
  <text x="110" y="456" font-size="15" font-weight="700" fill="#1E293B">김회원</text>
  <text x="110" y="476" font-size="12" fill="#94A3B8">중급 · 매트, 볼</text>
  <text x="110" y="494" font-size="11" fill="#64748B">임신(산전 필라테스)</text>

  <!-- Empty Slot -->
  <rect x="24" y="516" width="327" height="56" rx="14" fill="#FFF" stroke="#E2E8F0" stroke-width="1" stroke-dasharray="6,4"/>
  <text x="187" y="549" font-size="13" font-weight="500" text-anchor="middle" fill="#94A3B8">+ 16:00 스케줄 추가</text>

  <!-- Tab Bar -->
  <rect y="740" width="375" height="72" fill="#FFF"/>
  <line x1="0" y1="740" x2="375" y2="740" stroke="#E2E8F0"/>
  <text x="36" y="780" font-size="10" text-anchor="middle" fill="#94A3B8">홈</text>
  <text x="112" y="780" font-size="10" text-anchor="middle" fill="#94A3B8">회원</text>
  <rect x="155" y="755" width="64" height="3" rx="2" fill="#6366F1"/>
  <text x="187" y="780" font-size="10" font-weight="700" text-anchor="middle" fill="#6366F1">스케줄</text>
  <text x="262" y="780" font-size="10" text-anchor="middle" fill="#94A3B8">세션</text>
  <text x="338" y="780" font-size="10" text-anchor="middle" fill="#94A3B8">설정</text>
  <rect width="375" height="812" rx="40" fill="none" stroke="#1E293B" stroke-width="2"/>

  <!-- ===== 시퀀스 리뷰 ===== -->
  <g transform="translate(405, 0)">
    <rect width="375" height="812" rx="40" fill="#F8FAFC"/>
    <text x="187" y="30" font-size="14" font-weight="600" text-anchor="middle" fill="#1E293B">9:41</text>

    <text x="24" y="70" font-size="14" fill="#64748B">← 뒤로</text>
    <text x="24" y="100" font-size="20" font-weight="800" fill="#1E293B">시퀀스 리뷰</text>

    <!-- Member Info -->
    <rect x="24" y="116" width="327" height="96" rx="14" fill="#EEF2FF"/>
    <text x="40" y="140" font-size="16" font-weight="700" fill="#1E293B">이회원 · 2026.03.20</text>
    <text x="40" y="162" font-size="13" fill="#4338CA">"코어 집중과 유연성 향상 중심의 중급 시퀀스"</text>
    <text x="40" y="184" font-size="12" fill="#6366F1">😌 차분 · ⚡6 · 수면 보통 · 턱긴장 3/5</text>
    <text x="40" y="202" font-size="11" fill="#F59E0B">📝 "오른쪽 어깨가 뻐근해요" · 요청: 코어, 유연성</text>

    <!-- Exercise List -->
    <text x="24" y="240" font-size="14" font-weight="600" fill="#475569">운동 목록 (50분, 9개)</text>

    <!-- Exercise 1 -->
    <rect x="24" y="254" width="327" height="64" rx="12" fill="#FFF" stroke="#E2E8F0" stroke-width="1"/>
    <text x="44" y="278" font-size="11" font-weight="700" fill="#6366F1">1</text>
    <circle cx="44" cy="274" r="10" fill="none" stroke="#6366F1" stroke-width="1.5"/>
    <text x="64" y="278" font-size="14" font-weight="700" fill="#1E293B">헌드레드</text>
    <text x="64" y="296" font-size="11" fill="#94A3B8">웜업 · 매트 · 1분</text>
    <text x="64" y="310" font-size="10" fill="#10B981">호흡 워밍업</text>
    <text x="334" y="286" font-size="16" text-anchor="end" fill="#CBD5E1">☰</text>

    <!-- Exercise 2 -->
    <rect x="24" y="326" width="327" height="64" rx="12" fill="#FFF" stroke="#F59E0B" stroke-width="1.5"/>
    <text x="44" y="350" font-size="11" font-weight="700" fill="#6366F1">2</text>
    <circle cx="44" cy="346" r="10" fill="none" stroke="#6366F1" stroke-width="1.5"/>
    <text x="64" y="350" font-size="14" font-weight="700" fill="#1E293B">목·어깨 이완</text>
    <text x="64" y="368" font-size="11" fill="#94A3B8">스트레칭 · 매트 · 3분</text>
    <text x="64" y="382" font-size="10" fill="#F59E0B">⚠️ 턱 긴장+어깨 뻐근 → 추가됨</text>
    <text x="334" y="358" font-size="16" text-anchor="end" fill="#CBD5E1">☰</text>

    <!-- Exercise 3 -->
    <rect x="24" y="398" width="327" height="64" rx="12" fill="#FFF" stroke="#E2E8F0" stroke-width="1"/>
    <text x="44" y="422" font-size="11" font-weight="700" fill="#6366F1">3</text>
    <circle cx="44" cy="418" r="10" fill="none" stroke="#6366F1" stroke-width="1.5"/>
    <text x="64" y="422" font-size="14" font-weight="700" fill="#1E293B">롤업</text>
    <text x="64" y="440" font-size="11" fill="#94A3B8">코어 · 매트 · 3분 · 2세트</text>
    <text x="64" y="454" font-size="10" fill="#10B981">코어 요청 반영</text>
    <text x="334" y="430" font-size="16" text-anchor="end" fill="#CBD5E1">☰</text>

    <!-- Exercise 4 -->
    <rect x="24" y="470" width="327" height="64" rx="12" fill="#FFF" stroke="#E2E8F0" stroke-width="1"/>
    <text x="44" y="494" font-size="11" font-weight="700" fill="#6366F1">4</text>
    <circle cx="44" cy="490" r="10" fill="none" stroke="#6366F1" stroke-width="1.5"/>
    <text x="64" y="494" font-size="14" font-weight="700" fill="#1E293B">리포머 풋워크</text>
    <text x="64" y="512" font-size="11" fill="#94A3B8">하체 · 리포머 · 5분</text>
    <text x="64" y="526" font-size="10" fill="#10B981">하지 근력 + 정렬</text>
    <text x="334" y="502" font-size="16" text-anchor="end" fill="#CBD5E1">☰</text>

    <!-- More -->
    <text x="187" y="562" font-size="12" text-anchor="middle" fill="#94A3B8">+ 5개 운동 더보기</text>

    <!-- Add Exercise -->
    <rect x="24" y="580" width="327" height="44" rx="12" fill="#FFF" stroke="#6366F1" stroke-width="1.5" stroke-dasharray="6,4"/>
    <text x="187" y="607" font-size="14" font-weight="600" text-anchor="middle" fill="#6366F1">+ 운동 추가</text>

    <!-- Condtion Notes -->
    <rect x="24" y="640" width="327" height="44" rx="10" fill="#F0FDF4"/>
    <text x="40" y="667" font-size="12" fill="#166534">💡 수면 부족 → 부드러운 워밍업, 점진적 강도 증가</text>

    <!-- Save Button -->
    <rect x="24" y="700" width="327" height="52" rx="14" fill="#6366F1"/>
    <text x="187" y="732" font-size="16" font-weight="700" text-anchor="middle" fill="#FFF">저장 ✓</text>

    <rect width="375" height="812" rx="40" fill="none" stroke="#1E293B" stroke-width="2"/>
  </g>
</svg>
